<svg x="0px" y="0px" width="70px" height="24px" viewBox="0 0 70 24" xml:space="preserve">
	<g>
		<path d="M7.1,24c-0.7,0-1.2-0.1-1.7-0.2c-0.5-0.2-0.8-0.3-1.1-0.5c-0.3-0.2-0.4-0.4-0.6-0.5
			c-0.1-0.2-0.2-0.3-0.2-0.3c0-0.2,0-0.4,0.1-0.6c0.1-0.2,0.2-0.4,0.3-0.6s0.3-0.3,0.4-0.5c0.1-0.1,0.3-0.2,0.4-0.2
			c0.1,0,0.3,0.1,0.4,0.3c0,0,0.1,0.1,0.2,0.2c0.1,0.1,0.2,0.2,0.4,0.3c0.2,0.1,0.3,0.2,0.6,0.2c0.2,0.1,0.5,0.1,0.8,0.1
			c0.7,0,1.2-0.2,1.6-0.6c0.4-0.4,0.6-1,0.6-1.6c0-0.5-0.1-0.9-0.3-1.3c-0.2-0.4-0.5-0.7-0.9-1.1c-0.4-0.3-0.8-0.6-1.3-1
			c-0.5-0.3-1-0.6-1.4-1c-0.5-0.3-1-0.7-1.4-1.1c-0.5-0.4-0.9-0.8-1.3-1.3c-0.4-0.5-0.7-1.1-0.9-1.7c-0.2-0.6-0.3-1.4-0.3-2.2
			c0-0.7,0.1-1.4,0.4-2.1c0.2-0.7,0.6-1.4,1-2s0.9-1.2,1.5-1.8c0.6-0.6,1.2-1,1.9-1.5c0.7-0.4,1.4-0.7,2.1-1C9,0.1,9.7,0,10.5,0
			c0.6,0,1.2,0.1,1.7,0.3c0.5,0.2,0.9,0.5,1.3,0.8s0.6,0.8,0.8,1.3c0.2,0.5,0.3,1.1,0.3,1.7c0,0.6-0.1,1.2-0.3,1.8
			C14,6.5,13.7,7,13.4,7.5c-0.3,0.5-0.7,1-1.2,1.4c-0.4,0.4-0.9,0.8-1.3,1.1c-0.5,0.3-0.9,0.6-1.3,0.7c-0.4,0.2-0.8,0.3-1.1,0.3
			c-0.3,0-0.5-0.1-0.8-0.2c-0.2-0.1-0.4-0.3-0.6-0.5C6.9,10.2,6.8,10,6.7,9.8C6.6,9.6,6.6,9.4,6.6,9.2c0-0.1,0-0.2,0.1-0.3
			c0,0,0.1-0.1,0.2-0.1c0.1,0,0.2,0,0.3,0c0.1,0,0.2,0,0.4,0c0.4,0,0.9-0.2,1.5-0.5c0.5-0.3,1-0.7,1.5-1.2s0.9-1,1.2-1.6
			c0.3-0.6,0.5-1.1,0.5-1.7c0-0.5-0.1-1-0.4-1.3S11,2.4,10.3,2.4C9.9,2.4,9.5,2.5,9,2.7C8.6,2.8,8.1,3,7.6,3.3
			c-0.5,0.3-0.9,0.6-1.4,1C5.8,4.7,5.4,5.1,5.1,5.6C4.7,6,4.5,6.5,4.3,7.1C4.1,7.6,4,8.2,4,8.8c0,0.6,0.1,1.2,0.3,1.7
			c0.2,0.5,0.5,0.9,0.9,1.3c0.4,0.4,0.8,0.8,1.3,1.1c0.5,0.3,1,0.7,1.4,1c0.5,0.3,1,0.7,1.4,1s0.9,0.7,1.3,1.2
			c0.4,0.4,0.7,0.9,0.9,1.4c0.2,0.5,0.3,1.1,0.3,1.8c0,0.7-0.1,1.3-0.4,1.8c-0.2,0.6-0.6,1.1-1,1.5c-0.4,0.4-0.9,0.8-1.5,1
			C8.4,23.9,7.7,24,7.1,24z" />
		<path d="M19.8,23.7c-0.7,0-1.4-0.1-2.1-0.4c-0.7-0.3-1.3-0.7-1.8-1.2s-0.9-1.1-1.2-1.9c-0.3-0.8-0.5-1.6-0.5-2.6
			c0-0.9,0.1-1.8,0.4-2.7c0.3-0.9,0.6-1.7,1.1-2.4c0.5-0.7,1-1.3,1.7-1.7c0.6-0.4,1.3-0.6,2.1-0.6c0.6,0,1,0.1,1.4,0.3
			c0.4,0.2,0.7,0.5,0.9,0.8c0.2,0.3,0.4,0.7,0.5,1c0.1,0.4,0.2,0.7,0.2,1c0,0.2-0.1,0.4-0.2,0.6c-0.1,0.2-0.2,0.3-0.4,0.4
			c-0.2,0.1-0.3,0.2-0.5,0.3c-0.2,0.1-0.4,0.1-0.5,0.1c-0.1,0-0.3-0.1-0.4-0.2c-0.1-0.1-0.1-0.2-0.1-0.4c0-0.1-0.1-0.3-0.1-0.5
			c0-0.2-0.1-0.4-0.2-0.6c-0.1-0.2-0.2-0.3-0.4-0.5c-0.2-0.1-0.4-0.2-0.6-0.2c-0.3,0-0.6,0.1-0.9,0.4c-0.3,0.3-0.5,0.7-0.7,1.1
			c-0.2,0.5-0.4,1-0.5,1.7c-0.1,0.6-0.2,1.3-0.2,2c0,0.6,0.1,1.2,0.2,1.7c0.2,0.5,0.4,0.9,0.7,1.2c0.3,0.3,0.6,0.6,1,0.8
			c0.4,0.2,0.8,0.3,1.3,0.3c0.6,0,1.2-0.1,1.6-0.4c0.5-0.2,0.9-0.5,1.2-0.9c0.3-0.4,0.6-0.8,0.8-1.3c0.2-0.5,0.3-1,0.4-1.5
			c0.1-0.4,0.2-0.6,0.4-0.7c0.2-0.1,0.5-0.1,0.7-0.1c0.2,0.1,0.4,0.2,0.6,0.4c0.2,0.2,0.2,0.4,0.2,0.7c0,0.3-0.1,0.7-0.2,1.1
			c-0.1,0.4-0.3,0.8-0.5,1.3c-0.2,0.4-0.5,0.9-0.8,1.3c-0.3,0.4-0.7,0.8-1.2,1.1c-0.5,0.3-1,0.6-1.6,0.8
			C21.3,23.6,20.6,23.7,19.8,23.7z" />
		<path d="M33.4,21.6c0.3,0,0.6-0.1,0.8-0.3c0.2-0.2,0.4-0.5,0.6-0.9c0.2-0.3,0.3-0.7,0.4-1.1
			c0.1-0.4,0.2-0.8,0.3-1.1c0.1-0.3,0.2-0.6,0.3-0.7c0.1-0.2,0.3-0.2,0.5-0.2c0.1,0,0.3,0,0.4,0.1c0.1,0.1,0.3,0.2,0.4,0.3
			c0.1,0.1,0.2,0.3,0.3,0.4c0.1,0.2,0.1,0.3,0.1,0.5c0,0,0,0,0,0.1c0,0,0,0.1,0,0.1c-0.1,0.5-0.3,1.1-0.6,1.7
			c-0.2,0.6-0.5,1.1-0.9,1.6c-0.4,0.5-0.8,0.9-1.3,1.2s-1.1,0.5-1.8,0.5c-0.6,0-1.1-0.1-1.5-0.4c-0.4-0.2-0.7-0.6-1-1
			c-0.3,0.4-0.7,0.7-1.2,0.9c-0.5,0.3-1,0.4-1.6,0.4c-0.6,0-1.2-0.1-1.7-0.4c-0.5-0.3-0.9-0.6-1.2-1c-0.3-0.4-0.6-0.9-0.7-1.5
			c-0.2-0.6-0.2-1.2-0.2-1.9c0-1.3,0.2-2.5,0.6-3.6c0.4-1.1,1-2,1.7-2.7c0.7-0.7,1.5-1.3,2.4-1.7c0.9-0.4,1.9-0.6,2.9-0.6
			c0.4,0,0.8,0.1,1.1,0.4c0.3,0.2,0.4,0.6,0.4,1c0,0.3,0,0.5-0.1,0.6c-0.1,0.1-0.2,0.2-0.3,0.2c-0.1,0-0.3,0-0.5,0
			c-0.2,0-0.3,0-0.5,0c-0.6,0-1.2,0.1-1.9,0.4c-0.6,0.3-1.2,0.7-1.7,1.2c-0.5,0.6-0.9,1.2-1.3,2.1c-0.3,0.8-0.5,1.8-0.5,3
			c0,0.8,0.2,1.5,0.5,2c0.3,0.5,0.8,0.7,1.3,0.7c0.4,0,0.8-0.2,1.1-0.5c0.3-0.3,0.5-0.7,0.7-1.2v-5c0-0.2,0-0.3,0-0.4
			c0-0.1,0-0.2,0-0.3c0-0.1,0-0.1,0-0.2c0-0.1,0-0.1,0-0.2c0-0.2,0.1-0.3,0.2-0.4c0.2-0.1,0.4-0.1,0.6-0.1c0.5,0,1,0.1,1.3,0.4
			c0.3,0.3,0.5,0.6,0.5,1v5.3c0,0.2,0,0.4,0.1,0.5c0,0.2,0.1,0.3,0.2,0.5c0.1,0.1,0.2,0.3,0.3,0.3C33,21.6,33.2,21.6,33.4,21.6z"
		/>
		<path d="M32.8,7.7c0.2,0,0.5,0,0.8,0c0.3,0,0.6,0,0.9,0c0.4,0,0.8,0,1.2,0V2.3c0-0.2,0-0.4-0.1-0.6
			c0-0.1-0.1-0.2-0.1-0.3c0-0.1-0.1-0.1-0.1-0.2c0,0-0.1-0.1-0.1-0.1c0-0.1,0-0.1,0.1-0.2c0.1,0,0.1-0.1,0.3-0.1
			c0.1,0,0.2-0.1,0.3-0.1c0.1,0,0.2,0,0.4,0c0.5,0,1,0.1,1.3,0.4c0.3,0.3,0.5,0.6,0.5,1v5.6c1,0,2,0,3.1,0c1.1,0,2.2-0.1,3.3-0.1
			c0.1-0.2,0.3-0.2,0.4-0.2C45,7.6,45,7.7,45,7.8c0,0.2,0,0.4,0,0.6c0,0.2-0.1,0.5-0.1,0.7c-0.1,0.2-0.1,0.4-0.3,0.6
			c-0.1,0.2-0.2,0.2-0.4,0.2c-1.3,0-2.4,0-3.4,0.1c-1,0-1.9,0-2.8,0v10.2c0,0.5,0.1,0.9,0.3,1.1c0.2,0.2,0.5,0.3,0.8,0.3
			c0.3,0,0.6-0.1,0.8-0.3c0.2-0.2,0.4-0.5,0.6-0.9s0.3-0.7,0.4-1.1c0.1-0.4,0.2-0.8,0.3-1.1c0.1-0.3,0.2-0.6,0.3-0.7
			c0.1-0.2,0.3-0.2,0.5-0.2c0.1,0,0.3,0,0.4,0.1c0.1,0.1,0.3,0.2,0.4,0.3c0.1,0.1,0.2,0.3,0.3,0.4c0.1,0.2,0.1,0.3,0.1,0.5
			c0,0,0,0,0,0.1c0,0,0,0.1,0,0.1c-0.1,0.5-0.3,1.1-0.6,1.7c-0.2,0.6-0.5,1.1-0.9,1.6c-0.4,0.5-0.8,0.9-1.3,1.2
			c-0.5,0.3-1.1,0.5-1.8,0.5c-0.4,0-0.8-0.1-1.2-0.2c-0.4-0.1-0.7-0.3-0.9-0.6c-0.3-0.3-0.5-0.7-0.6-1.1c-0.1-0.5-0.2-1-0.2-1.6V9.9
			c-0.4,0-0.7,0-1,0c-0.3,0-0.5,0-0.7,0c-0.2,0-0.4,0-0.6,0c-0.3,0-0.5-0.1-0.7-0.3c-0.2-0.2-0.3-0.5-0.4-0.7c-0.1-0.3-0.1-0.5,0-0.7
			C32.4,7.8,32.5,7.7,32.8,7.7z" />
		<path d="M38.6,7.7c0.2,0,0.5,0,0.8,0c0.3,0,0.6,0,0.9,0c0.4,0,0.8,0,1.2,0V2.3c0-0.2,0-0.4-0.1-0.6
			c0-0.1-0.1-0.2-0.1-0.3c0-0.1-0.1-0.1-0.1-0.2c0,0-0.1-0.1-0.1-0.1c0-0.1,0-0.1,0.1-0.2c0.1,0,0.1-0.1,0.3-0.1
			c0.1,0,0.2-0.1,0.3-0.1c0.1,0,0.2,0,0.4,0c0.5,0,1,0.1,1.3,0.4c0.3,0.3,0.5,0.6,0.5,1v5.6c1,0,2,0,3.1,0c1.1,0,2.2-0.1,3.3-0.1
			c0.1-0.2,0.3-0.2,0.4-0.2c0.1,0,0.1,0.1,0.2,0.3c0,0.2,0,0.4,0,0.6c0,0.2-0.1,0.5-0.1,0.7c-0.1,0.2-0.1,0.4-0.3,0.6
			c-0.1,0.2-0.2,0.2-0.4,0.2c-1.3,0-2.4,0-3.4,0.1c-1,0-1.9,0-2.8,0v10.2c0,0.5,0.1,0.9,0.3,1.1c0.2,0.2,0.5,0.3,0.8,0.3
			c0.3,0,0.6-0.1,0.8-0.3c0.2-0.2,0.4-0.5,0.6-0.9s0.3-0.7,0.4-1.1c0.1-0.4,0.2-0.8,0.3-1.1c0.1-0.3,0.2-0.6,0.3-0.7
			c0.1-0.2,0.3-0.2,0.5-0.2c0.1,0,0.3,0,0.4,0.1c0.1,0.1,0.3,0.2,0.4,0.3c0.1,0.1,0.2,0.3,0.3,0.4c0.1,0.2,0.1,0.3,0.1,0.5
			c0,0,0,0,0,0.1c0,0,0,0.1,0,0.1c-0.1,0.5-0.3,1.1-0.6,1.7C48.3,21,48,21.5,47.6,22c-0.4,0.5-0.8,0.9-1.3,1.2
			c-0.5,0.3-1.1,0.5-1.8,0.5c-0.4,0-0.8-0.1-1.2-0.2c-0.4-0.1-0.7-0.3-0.9-0.6c-0.3-0.3-0.5-0.7-0.6-1.1c-0.1-0.5-0.2-1-0.2-1.6V9.9
			c-0.4,0-0.7,0-1,0c-0.3,0-0.5,0-0.7,0c-0.2,0-0.4,0-0.6,0c-0.3,0-0.5-0.1-0.7-0.3c-0.2-0.2-0.3-0.5-0.4-0.7c-0.1-0.3-0.1-0.5,0-0.7
			C38.2,7.8,38.4,7.7,38.6,7.7z" />
		<path d="M54.7,13.5c0,0.6-0.1,1.2-0.3,1.8c-0.2,0.6-0.5,1.2-0.9,1.8c-0.4,0.6-0.9,1.1-1.5,1.5
			c-0.6,0.4-1.3,0.8-2.1,1c0.1,0.3,0.2,0.5,0.4,0.8c0.2,0.2,0.4,0.5,0.6,0.6c0.2,0.2,0.5,0.3,0.8,0.4c0.3,0.1,0.7,0.2,1.1,0.2
			c0.6,0,1.2-0.1,1.6-0.4c0.5-0.2,0.8-0.5,1.1-0.9c0.3-0.4,0.6-0.8,0.7-1.3c0.2-0.5,0.3-1,0.4-1.5c0.1-0.4,0.2-0.6,0.4-0.7
			c0.2-0.1,0.5-0.1,0.7-0.1c0.2,0.1,0.4,0.2,0.6,0.4c0.2,0.2,0.2,0.4,0.2,0.7c0,0.3-0.1,0.7-0.2,1.1c-0.1,0.4-0.2,0.8-0.4,1.3
			c-0.2,0.4-0.5,0.9-0.8,1.3c-0.3,0.4-0.7,0.8-1.1,1.1c-0.5,0.3-1,0.6-1.6,0.8c-0.6,0.2-1.3,0.3-2.1,0.3c-0.7,0-1.4-0.1-2.1-0.4
			c-0.7-0.3-1.3-0.7-1.8-1.2c-0.5-0.5-1-1.2-1.3-2c-0.3-0.8-0.5-1.7-0.5-2.7c0-1,0.1-2,0.4-2.8c0.3-0.9,0.7-1.6,1.1-2.3
			c0.5-0.6,1-1.1,1.6-1.5c0.6-0.4,1.2-0.5,1.8-0.5c0.5,0,0.9,0.1,1.2,0.2c0.4,0.2,0.7,0.4,0.9,0.7c0.3,0.3,0.4,0.6,0.6,1
			C54.7,12.5,54.7,13,54.7,13.5z M49.6,17.3c0,0.1,0,0.2,0,0.3c0,0.1,0,0.2,0,0.3c0.4-0.2,0.8-0.4,1.1-0.7c0.3-0.3,0.6-0.6,0.8-1
			c0.2-0.4,0.4-0.8,0.5-1.2c0.1-0.4,0.2-0.9,0.2-1.4c0-0.4-0.1-0.6-0.2-0.8c-0.1-0.2-0.3-0.3-0.5-0.3c-0.3,0-0.5,0.1-0.7,0.3
			c-0.2,0.2-0.4,0.4-0.5,0.7c-0.2,0.3-0.3,0.6-0.4,1c-0.1,0.4-0.2,0.7-0.2,1.1c-0.1,0.4-0.1,0.7-0.1,1C49.6,16.8,49.5,17,49.6,17.3z"
		/>
		<path d="M63.9,23.7c-0.4,0-0.8-0.1-1.2-0.2S62,23.2,61.7,23c-0.3-0.3-0.6-0.7-0.8-1.1s-0.3-1.1-0.3-1.8
			c0-1,0.1-2.1,0.4-3.3c0.3-1.2,0.7-2.4,1.2-3.8h-2.5h-0.4c0,0.3,0,0.7-0.1,1.2c0,0.5-0.1,1-0.1,1.5c-0.1,0.5-0.1,1.1-0.2,1.7
			c-0.1,0.6-0.2,1.1-0.4,1.5c-0.1,0.3-0.3,0.5-0.5,0.6c-0.2,0.1-0.4,0-0.7-0.1S57,19,56.9,18.8c-0.1-0.3-0.2-0.5-0.1-0.8
			c0.1-0.3,0.2-0.7,0.2-1.2c0.1-0.5,0.1-1,0.1-1.5c0-0.5,0.1-1,0.1-1.6c0-0.5,0-1,0-1.4c-0.4-0.2-0.7-0.5-1-0.8
			c-0.3-0.3-0.4-0.7-0.4-1.2c0-0.2,0-0.4,0.1-0.6c0.1-0.2,0.2-0.3,0.4-0.5c0.1-0.1,0.3-0.2,0.5-0.3c0.2-0.1,0.4-0.1,0.6-0.1
			c0.2,0,0.4,0,0.6,0.1C58.3,9,58.5,9,58.7,9.2c0.2,0.1,0.3,0.3,0.5,0.5c0.1,0.2,0.3,0.5,0.4,0.8c0.3,0,0.5,0.1,0.7,0.1
			c0.2,0,0.3,0,0.5,0c0.1,0,0.2,0,0.3,0c0.1,0,0.2,0,0.3,0H63c0.1,0,0.2,0.1,0.4,0.2c0.2,0.1,0.4,0.3,0.5,0.4
			c0.2,0.2,0.3,0.4,0.4,0.6c0.1,0.2,0.2,0.4,0.1,0.6c0,0.1,0,0.2-0.1,0.5c-0.1,0.2-0.2,0.5-0.3,0.9c-0.1,0.4-0.2,0.8-0.3,1.3
			c-0.1,0.5-0.2,1-0.3,1.5c-0.1,0.5-0.2,1.1-0.3,1.6c-0.1,0.6-0.1,1.1-0.1,1.6c0,0.2,0,0.4,0.1,0.6c0.1,0.2,0.1,0.4,0.2,0.6
			c0.1,0.2,0.2,0.3,0.4,0.4c0.2,0.1,0.4,0.1,0.6,0.1c0.4,0,0.7-0.1,0.9-0.3c0.3-0.2,0.5-0.5,0.7-0.9c0.2-0.3,0.3-0.7,0.4-1.1
			c0.1-0.4,0.2-0.8,0.3-1.1c0.1-0.3,0.2-0.6,0.3-0.7c0.1-0.2,0.3-0.2,0.5-0.2c0.1,0,0.3,0,0.4,0.1c0.1,0.1,0.3,0.2,0.4,0.3
			c0.1,0.1,0.2,0.3,0.3,0.4c0.1,0.2,0.1,0.3,0.1,0.5c0,0.1,0,0.1,0,0.1c0,0,0,0.1,0,0.1c-0.1,0.5-0.3,1.1-0.6,1.7
			C67.7,21,67.4,21.5,67,22c-0.4,0.5-0.8,0.9-1.3,1.2C65.2,23.6,64.6,23.7,63.9,23.7z" />
	</g>
</svg>
